<?xml version="1.0" encoding="UTF-8"?>
<svg id="_Слой_1" data-name="Слой 1" xmlns="http://www.w3.org/2000/svg" viewBox="0 0 180 180">
  <defs>
    <style>
      .cls-1 {
        fill: #ffda00;
      }

      .cls-1, .cls-2, .cls-3 {
        stroke-width: 0px;
      }

      .cls-2 {
        fill: #e52421;
      }

      .cls-3 {
        fill: #2c4a9a;
      }
    </style>
  </defs>
  <path class="cls-1" d="M93.32,102.62l24.31,61.96c1.07,2.72-.39,5.78-3.17,6.66-7.9,2.51-16.15,3.79-24.46,3.79-15.58,0-30.79-4.5-43.83-12.91-2.45-1.58-3.05-4.92-1.31-7.26l39.71-53.41c2.36-3.18,7.3-2.52,8.75,1.17Z"/>
  <path class="cls-2" d="M87.09,89.16l-46.83,62.46c-1.76,2.35-5.13,2.69-7.36.78C14.15,136.37,3.22,112.83,3.22,87.98,3.22,41.48,41.48,3.22,87.98,3.22c33.54,0,63.88,19.91,77.42,50.25,1.19,2.66-.12,5.78-2.85,6.79l-73.17,27.2c-.91.34-1.7.93-2.28,1.7Z"/>
  <path class="cls-3" d="M99.66,91.19l65.4-24.42c2.75-1.03,5.78.5,6.62,3.32,2.21,7.42,3.34,15.13,3.34,22.9,0,31.15-18.16,59.43-46.07,72.55-2.66,1.25-5.82.02-6.89-2.72l-25.33-65.06c-1.02-2.62.3-5.57,2.94-6.56Z"/>
</svg>